# xmcd
#
# Track frame offsets:
#	150
#	16475
#	33278
#	46216
#	60119
#	76705
#	91149
#	102845
#	118098
#	129211
#	140920
#	155974
#	169518
#	182351
#	191188
#	206199
#	217998
#
# Disc length: 3224
#
# Revision: 3
# Processed by: cddbd v1.5.1PL0 Copyright (c) Steve Scherf et al.
# Submitted via: EasyCDDAExtractor 5.1.0
# Normalized: r2:DSETVAR1
#
DISCID=df0c9611
DTITLE=Various Artist - Lady Sings The Blues Vol2 - CD2
DYEAR=2003
DGENRE=Blues
TTITLE0=Nina Simone - My Baby Just Cares For Me
TTITLE1=Gladys Night and The Pips - You're The Best Thing That Ever Happened To Me
TTITLE2=Bobbie Gentry - I'll Never Fall In Love Again
TTITLE3=Billie Holliday - The Way You Look Tonight
TTITLE4=Aretha Franklin - Unforgettable
TTITLE5=Sarah Vaughan - All Or Nothing
TTITLE6=Maxine Brown - Oh No Not My Baby
TTITLE7=Peggy Scott - Every Little Bit Hurts
TTITLE8=Nancy Wilson - Here's That Rainy Day
TTITLE9=Sue Raney - September In The Rain
TTITLE10=Julie London - The Thrill Is Gone
TTITLE11=Keely Smith - Someone To Watch Over Me
TTITLE12=Kay Starr - I Cry By Night
TTITLE13=Betty Hutton - Hit The Road To Dreamland
TTITLE14=Billie Holiday and The Teddy Wilson Orchestra - Love Me Or Leave Me
TTITLE15=June Christy - Looking For A Boy (Tip Toes)
TTITLE16=Sarah Vaughan - In A Sentimental Mood
EXTD=
EXTT0=
EXTT1=
EXTT2=
EXTT3=
EXTT4=
EXTT5=
EXTT6=
EXTT7=
EXTT8=
EXTT9=
EXTT10=
EXTT11=
EXTT12=
EXTT13=
EXTT14=
EXTT15=
EXTT16=
PLAYORDER=
